<svg width="116" height="72" viewBox="0 0 116 72" fill="none" xmlns="http://www.w3.org/2000/svg">
<path d="M1.95377 2.7132C2.70111 2.7132 3.30695 2.10736 3.30695 1.36002C3.30695 0.612677 2.70111 0.00683594 1.95377 0.00683594C1.20643 0.00683594 0.600586 0.612677 0.600586 1.36002C0.600586 2.10736 1.20643 2.7132 1.95377 2.7132Z" fill="#C4E9B1"/>
<path d="M10.5622 2.7132C11.3095 2.7132 11.9154 2.10736 11.9154 1.36002C11.9154 0.612677 11.3095 0.00683594 10.5622 0.00683594C9.81483 0.00683594 9.20898 0.612677 9.20898 1.36002C9.20898 2.10736 9.81483 2.7132 10.5622 2.7132Z" fill="#C4E9B1"/>
<path d="M19.1854 2.72244C19.9345 2.72244 20.5418 2.11519 20.5418 1.3661C20.5418 0.617019 19.9345 0.00976562 19.1854 0.00976562C18.4364 0.00976562 17.8291 0.617019 17.8291 1.3661C17.8291 2.11519 18.4364 2.72244 19.1854 2.72244Z" fill="#C4E9B1"/>
<path d="M27.8005 2.7132C28.5478 2.7132 29.1536 2.10736 29.1536 1.36002C29.1536 0.612677 28.5478 0.00683594 27.8005 0.00683594C27.0531 0.00683594 26.4473 0.612677 26.4473 1.36002C26.4473 2.10736 27.0531 2.7132 27.8005 2.7132Z" fill="#C4E9B1"/>
<path d="M36.4079 2.71613C37.1552 2.71613 37.7611 2.11029 37.7611 1.36295C37.7611 0.615607 37.1552 0.00976562 36.4079 0.00976562C35.6605 0.00976562 35.0547 0.615607 35.0547 1.36295C35.0547 2.11029 35.6605 2.71613 36.4079 2.71613Z" fill="#C4E9B1"/>
<path d="M45.016 2.7069C45.7616 2.7069 46.3661 2.10247 46.3661 1.35687C46.3661 0.611265 45.7616 0.00683594 45.016 0.00683594C44.2704 0.00683594 43.666 0.611265 43.666 1.35687C43.666 2.10247 44.2704 2.7069 45.016 2.7069Z" fill="#C4E9B1"/>
<path d="M53.6339 2.71899C54.3847 2.71899 54.9934 2.11032 54.9934 1.35949C54.9934 0.608666 54.3847 0 53.6339 0C52.8831 0 52.2744 0.608666 52.2744 1.35949C52.2744 2.11032 52.8831 2.71899 53.6339 2.71899Z" fill="#C4E9B1"/>
<path d="M62.2575 2.71613C63.0048 2.71613 63.6107 2.11029 63.6107 1.36295C63.6107 0.615607 63.0048 0.00976562 62.2575 0.00976562C61.5101 0.00976562 60.9043 0.615607 60.9043 1.36295C60.9043 2.11029 61.5101 2.71613 62.2575 2.71613Z" fill="#C4E9B1"/>
<path d="M70.8649 2.71223C71.6122 2.71223 72.2181 2.10639 72.2181 1.35904C72.2181 0.611701 71.6122 0.00585938 70.8649 0.00585938C70.1176 0.00585938 69.5117 0.611701 69.5117 1.35904C69.5117 2.10639 70.1176 2.71223 70.8649 2.71223Z" fill="#C4E9B1"/>
<path d="M79.4733 2.71223C80.2206 2.71223 80.8265 2.10639 80.8265 1.35904C80.8265 0.611701 80.2206 0.00585938 79.4733 0.00585938C78.726 0.00585938 78.1201 0.611701 78.1201 1.35904C78.1201 2.10639 78.726 2.71223 79.4733 2.71223Z" fill="#C4E9B1"/>
<path d="M88.0817 2.71613C88.829 2.71613 89.4349 2.11029 89.4349 1.36295C89.4349 0.615607 88.829 0.00976562 88.0817 0.00976562C87.3344 0.00976562 86.7285 0.615607 86.7285 1.36295C86.7285 2.11029 87.3344 2.71613 88.0817 2.71613Z" fill="#C4E9B1"/>
<path d="M96.7047 2.71613C97.4521 2.71613 98.0579 2.11029 98.0579 1.36295C98.0579 0.615607 97.4521 0.00976562 96.7047 0.00976562C95.9574 0.00976562 95.3516 0.615607 95.3516 1.36295C95.3516 2.11029 95.9574 2.71613 96.7047 2.71613Z" fill="#C4E9B1"/>
<path d="M105.319 2.71223C106.066 2.71223 106.672 2.10639 106.672 1.35904C106.672 0.611701 106.066 0.00585938 105.319 0.00585938C104.572 0.00585938 103.966 0.611701 103.966 1.35904C103.966 2.10639 104.572 2.71223 105.319 2.71223Z" fill="#C4E9B1"/>
<path d="M113.927 2.71223C114.675 2.71223 115.281 2.10639 115.281 1.35904C115.281 0.611701 114.675 0.00585938 113.927 0.00585938C113.18 0.00585938 112.574 0.611701 112.574 1.35904C112.574 2.10639 113.18 2.71223 113.927 2.71223Z" fill="#C4E9B1"/>
<path d="M1.95745 11.3338C2.70305 11.3338 3.30748 10.7294 3.30748 9.98382C3.30748 9.23822 2.70305 8.63379 1.95745 8.63379C1.21185 8.63379 0.607422 9.23822 0.607422 9.98382C0.607422 10.7294 1.21185 11.3338 1.95745 11.3338Z" fill="#C4E9B1"/>
<path d="M10.5678 11.3368C11.3134 11.3368 11.9178 10.7323 11.9178 9.98675C11.9178 9.24115 11.3134 8.63672 10.5678 8.63672C9.8222 8.63672 9.21777 9.24115 9.21777 9.98675C9.21777 10.7323 9.8222 11.3368 10.5678 11.3368Z" fill="#C4E9B1"/>
<path d="M19.183 11.3368C19.9286 11.3368 20.5331 10.7323 20.5331 9.98675C20.5331 9.24115 19.9286 8.63672 19.183 8.63672C18.4374 8.63672 17.833 9.24115 17.833 9.98675C17.833 10.7323 18.4374 11.3368 19.183 11.3368Z" fill="#C4E9B1"/>
<path d="M27.8002 11.3338C28.5458 11.3338 29.1503 10.7294 29.1503 9.98382C29.1503 9.23822 28.5458 8.63379 27.8002 8.63379C27.0546 8.63379 26.4502 9.23822 26.4502 9.98382C26.4502 10.7294 27.0546 11.3338 27.8002 11.3338Z" fill="#C4E9B1"/>
<path d="M36.4081 11.3426C37.1572 11.3426 37.7644 10.7353 37.7644 9.98622C37.7644 9.23714 37.1572 8.62988 36.4081 8.62988C35.659 8.62988 35.0518 9.23714 35.0518 9.98622C35.0518 10.7353 35.659 11.3426 36.4081 11.3426Z" fill="#C4E9B1"/>
<path d="M45.0229 11.3338C45.7685 11.3338 46.3729 10.7294 46.3729 9.98382C46.3729 9.23822 45.7685 8.63379 45.0229 8.63379C44.2773 8.63379 43.6729 9.23822 43.6729 9.98382C43.6729 10.7294 44.2773 11.3338 45.0229 11.3338Z" fill="#C4E9B1"/>
<path d="M53.6401 11.3368C54.3857 11.3368 54.9901 10.7323 54.9901 9.98675C54.9901 9.24115 54.3857 8.63672 53.6401 8.63672C52.8945 8.63672 52.29 9.24115 52.29 9.98675C52.29 10.7323 52.8945 11.3368 53.6401 11.3368Z" fill="#C4E9B1"/>
<path d="M62.2506 11.3363C62.998 11.3363 63.6038 10.7304 63.6038 9.98307C63.6038 9.23572 62.998 8.62988 62.2506 8.62988C61.5033 8.62988 60.8975 9.23572 60.8975 9.98307C60.8975 10.7304 61.5033 11.3363 62.2506 11.3363Z" fill="#C4E9B1"/>
<path d="M70.862 11.3363C71.6093 11.3363 72.2152 10.7304 72.2152 9.98307C72.2152 9.23572 71.6093 8.62988 70.862 8.62988C70.1146 8.62988 69.5088 9.23572 69.5088 9.98307C69.5088 10.7304 70.1146 11.3363 70.862 11.3363Z" fill="#C4E9B1"/>
<path d="M79.4704 11.3363C80.2177 11.3363 80.8236 10.7304 80.8236 9.98307C80.8236 9.23572 80.2177 8.62988 79.4704 8.62988C78.723 8.62988 78.1172 9.23572 78.1172 9.98307C78.1172 10.7304 78.723 11.3363 79.4704 11.3363Z" fill="#C4E9B1"/>
<path d="M88.0873 11.3329C88.8329 11.3329 89.4374 10.7284 89.4374 9.98284C89.4374 9.23724 88.8329 8.63281 88.0873 8.63281C87.3417 8.63281 86.7373 9.23724 86.7373 9.98284C86.7373 10.7284 87.3417 11.3329 88.0873 11.3329Z" fill="#C4E9B1"/>
<path d="M96.7016 11.3368C97.4472 11.3368 98.0516 10.7323 98.0516 9.98675C98.0516 9.24115 97.4472 8.63672 96.7016 8.63672C95.956 8.63672 95.3516 9.24115 95.3516 9.98675C95.3516 10.7323 95.956 11.3368 96.7016 11.3368Z" fill="#C4E9B1"/>
<path d="M105.316 11.3363C106.063 11.3363 106.669 10.7304 106.669 9.98307C106.669 9.23572 106.063 8.62988 105.316 8.62988C104.569 8.62988 103.963 9.23572 103.963 9.98307C103.963 10.7304 104.569 11.3363 105.316 11.3363Z" fill="#C4E9B1"/>
<path d="M113.93 11.3333C114.678 11.3333 115.284 10.7275 115.284 9.98014C115.284 9.23279 114.678 8.62695 113.93 8.62695C113.183 8.62695 112.577 9.23279 112.577 9.98014C112.577 10.7275 113.183 11.3333 113.93 11.3333Z" fill="#C4E9B1"/>
<path d="M1.95084 19.9573C2.69818 19.9573 3.30402 19.3515 3.30402 18.6042C3.30402 17.8568 2.69818 17.251 1.95084 17.251C1.2035 17.251 0.597656 17.8568 0.597656 18.6042C0.597656 19.3515 1.2035 19.9573 1.95084 19.9573Z" fill="#C4E9B1"/>
<path d="M10.5649 19.954C11.3105 19.954 11.9149 19.3495 11.9149 18.6039C11.9149 17.8583 11.3105 17.2539 10.5649 17.2539C9.81927 17.2539 9.21484 17.8583 9.21484 18.6039C9.21484 19.3495 9.81927 19.954 10.5649 19.954Z" fill="#C4E9B1"/>
<path d="M19.1891 19.9544C19.9365 19.9544 20.5423 19.3486 20.5423 18.6012C20.5423 17.8539 19.9365 17.248 19.1891 17.248C18.4418 17.248 17.8359 17.8539 17.8359 18.6012C17.8359 19.3486 18.4418 19.9544 19.1891 19.9544Z" fill="#C4E9B1"/>
<path d="M27.7973 19.951C28.5429 19.951 29.1473 19.3466 29.1473 18.601C29.1473 17.8554 28.5429 17.251 27.7973 17.251C27.0517 17.251 26.4473 17.8554 26.4473 18.601C26.4473 19.3466 27.0517 19.951 27.7973 19.951Z" fill="#C4E9B1"/>
<path d="M36.4076 19.9569C37.1532 19.9569 37.7577 19.3525 37.7577 18.6069C37.7577 17.8613 37.1532 17.2568 36.4076 17.2568C35.662 17.2568 35.0576 17.8613 35.0576 18.6069C35.0576 19.3525 35.662 19.9569 36.4076 19.9569Z" fill="#C4E9B1"/>
<path d="M45.0192 19.9544C45.7665 19.9544 46.3724 19.3486 46.3724 18.6012C46.3724 17.8539 45.7665 17.248 45.0192 17.248C44.2719 17.248 43.666 17.8539 43.666 18.6012C43.666 19.3486 44.2719 19.9544 45.0192 19.9544Z" fill="#C4E9B1"/>
<path d="M53.6332 19.9481C54.3788 19.9481 54.9833 19.3437 54.9833 18.5981C54.9833 17.8525 54.3788 17.248 53.6332 17.248C52.8876 17.248 52.2832 17.8525 52.2832 18.5981C52.2832 19.3437 52.8876 19.9481 53.6332 19.9481Z" fill="#C4E9B1"/>
<path d="M62.2541 19.9506C62.998 19.9506 63.601 19.3476 63.601 18.6037C63.601 17.8599 62.998 17.2568 62.2541 17.2568C61.5102 17.2568 60.9072 17.8599 60.9072 18.6037C60.9072 19.3476 61.5102 19.9506 62.2541 19.9506Z" fill="#C4E9B1"/>
<path d="M70.8649 19.9603C71.6122 19.9603 72.2181 19.3544 72.2181 18.6071C72.2181 17.8597 71.6122 17.2539 70.8649 17.2539C70.1176 17.2539 69.5117 17.8597 69.5117 18.6071C69.5117 19.3544 70.1176 19.9603 70.8649 19.9603Z" fill="#C4E9B1"/>
<path d="M79.4731 19.951C80.2187 19.951 80.8231 19.3466 80.8231 18.601C80.8231 17.8554 80.2187 17.251 79.4731 17.251C78.7275 17.251 78.123 17.8554 78.123 18.601C78.123 19.3466 78.7275 19.951 79.4731 19.951Z" fill="#C4E9B1"/>
<path d="M88.0844 19.951C88.83 19.951 89.4344 19.3466 89.4344 18.601C89.4344 17.8554 88.83 17.251 88.0844 17.251C87.3388 17.251 86.7344 17.8554 86.7344 18.601C86.7344 19.3466 87.3388 19.951 88.0844 19.951Z" fill="#C4E9B1"/>
<path d="M96.7084 19.951C97.454 19.951 98.0585 19.3466 98.0585 18.601C98.0585 17.8554 97.454 17.251 96.7084 17.251C95.9628 17.251 95.3584 17.8554 95.3584 18.601C95.3584 19.3466 95.9628 19.951 96.7084 19.951Z" fill="#C4E9B1"/>
<path d="M105.316 19.9573C106.063 19.9573 106.669 19.3515 106.669 18.6042C106.669 17.8568 106.063 17.251 105.316 17.251C104.569 17.251 103.963 17.8568 103.963 18.6042C103.963 19.3515 104.569 19.9573 105.316 19.9573Z" fill="#C4E9B1"/>
<path d="M113.927 19.9569C114.673 19.9569 115.277 19.3525 115.277 18.6069C115.277 17.8613 114.673 17.2568 113.927 17.2568C113.182 17.2568 112.577 17.8613 112.577 18.6069C112.577 19.3525 113.182 19.9569 113.927 19.9569Z" fill="#C4E9B1"/>
<path d="M1.95377 28.5775C2.70111 28.5775 3.30695 27.9716 3.30695 27.2243C3.30695 26.4769 2.70111 25.8711 1.95377 25.8711C1.20643 25.8711 0.600586 26.4769 0.600586 27.2243C0.600586 27.9716 1.20643 28.5775 1.95377 28.5775Z" fill="#C4E9B1"/>
<path d="M10.5619 28.5839C11.3075 28.5839 11.912 27.9794 11.912 27.2338C11.912 26.4882 11.3075 25.8838 10.5619 25.8838C9.81634 25.8838 9.21191 26.4882 9.21191 27.2338C9.21191 27.9794 9.81634 28.5839 10.5619 28.5839Z" fill="#C4E9B1"/>
<path d="M19.1854 28.5867C19.9345 28.5867 20.5418 27.9794 20.5418 27.2304C20.5418 26.4813 19.9345 25.874 19.1854 25.874C18.4364 25.874 17.8291 26.4813 17.8291 27.2304C17.8291 27.9794 18.4364 28.5867 19.1854 28.5867Z" fill="#C4E9B1"/>
<path d="M27.8005 28.5775C28.5478 28.5775 29.1536 27.9716 29.1536 27.2243C29.1536 26.4769 28.5478 25.8711 27.8005 25.8711C27.0531 25.8711 26.4473 26.4769 26.4473 27.2243C26.4473 27.9716 27.0531 28.5775 27.8005 28.5775Z" fill="#C4E9B1"/>
<path d="M36.4079 28.5804C37.1552 28.5804 37.7611 27.9746 37.7611 27.2272C37.7611 26.4799 37.1552 25.874 36.4079 25.874C35.6605 25.874 35.0547 26.4799 35.0547 27.2272C35.0547 27.9746 35.6605 28.5804 36.4079 28.5804Z" fill="#C4E9B1"/>
<path d="M45.019 28.578C45.7646 28.578 46.369 27.9736 46.369 27.228C46.369 26.4824 45.7646 25.8779 45.019 25.8779C44.2734 25.8779 43.6689 26.4824 43.6689 27.228C43.6689 27.9736 44.2734 28.578 45.019 28.578Z" fill="#C4E9B1"/>
<path d="M53.6337 28.5838C54.3828 28.5838 54.99 27.9765 54.99 27.2274C54.99 26.4783 54.3828 25.8711 53.6337 25.8711C52.8846 25.8711 52.2773 26.4783 52.2773 27.2274C52.2773 27.9765 52.8846 28.5838 53.6337 28.5838Z" fill="#C4E9B1"/>
<path d="M62.2575 28.5843C63.0048 28.5843 63.6107 27.9785 63.6107 27.2311C63.6107 26.4838 63.0048 25.8779 62.2575 25.8779C61.5101 25.8779 60.9043 26.4838 60.9043 27.2311C60.9043 27.9785 61.5101 28.5843 62.2575 28.5843Z" fill="#C4E9B1"/>
<path d="M70.8649 28.5775C71.6122 28.5775 72.2181 27.9716 72.2181 27.2243C72.2181 26.4769 71.6122 25.8711 70.8649 25.8711C70.1176 25.8711 69.5117 26.4769 69.5117 27.2243C69.5117 27.9716 70.1176 28.5775 70.8649 28.5775Z" fill="#C4E9B1"/>
<path d="M79.4733 28.5775C80.2206 28.5775 80.8265 27.9716 80.8265 27.2243C80.8265 26.4769 80.2206 25.8711 79.4733 25.8711C78.726 25.8711 78.1201 26.4769 78.1201 27.2243C78.1201 27.9716 78.726 28.5775 79.4733 28.5775Z" fill="#C4E9B1"/>
<path d="M88.0817 28.5843C88.829 28.5843 89.4349 27.9785 89.4349 27.2311C89.4349 26.4838 88.829 25.8779 88.0817 25.8779C87.3344 25.8779 86.7285 26.4838 86.7285 27.2311C86.7285 27.9785 87.3344 28.5843 88.0817 28.5843Z" fill="#C4E9B1"/>
<path d="M96.705 28.5877C97.4541 28.5877 98.0613 27.9804 98.0613 27.2313C98.0613 26.4823 97.4541 25.875 96.705 25.875C95.9559 25.875 95.3486 26.4823 95.3486 27.2313C95.3486 27.9804 95.9559 28.5877 96.705 28.5877Z" fill="#C4E9B1"/>
<path d="M105.319 28.5814C106.066 28.5814 106.672 27.9755 106.672 27.2282C106.672 26.4808 106.066 25.875 105.319 25.875C104.572 25.875 103.966 26.4808 103.966 27.2282C103.966 27.9755 104.572 28.5814 105.319 28.5814Z" fill="#C4E9B1"/>
<path d="M113.927 28.5814C114.675 28.5814 115.281 27.9755 115.281 27.2282C115.281 26.4808 114.675 25.875 113.927 25.875C113.18 25.875 112.574 26.4808 112.574 27.2282C112.574 27.9755 113.18 28.5814 113.927 28.5814Z" fill="#C4E9B1"/>
<path d="M1.95745 37.202C2.70305 37.202 3.30748 36.5976 3.30748 35.852C3.30748 35.1064 2.70305 34.502 1.95745 34.502C1.21185 34.502 0.607422 35.1064 0.607422 35.852C0.607422 36.5976 1.21185 37.202 1.95745 37.202Z" fill="#C4E9B1"/>
<path d="M10.5678 37.202C11.3134 37.202 11.9178 36.5976 11.9178 35.852C11.9178 35.1064 11.3134 34.502 10.5678 34.502C9.8222 34.502 9.21777 35.1064 9.21777 35.852C9.21777 36.5976 9.8222 37.202 10.5678 37.202Z" fill="#C4E9B1"/>
<path d="M19.183 37.202C19.9286 37.202 20.5331 36.5976 20.5331 35.852C20.5331 35.1064 19.9286 34.502 19.183 34.502C18.4374 34.502 17.833 35.1064 17.833 35.852C17.833 36.5976 18.4374 37.202 19.183 37.202Z" fill="#C4E9B1"/>
<path d="M27.8005 37.1986C28.5478 37.1986 29.1536 36.5927 29.1536 35.8454C29.1536 35.098 28.5478 34.4922 27.8005 34.4922C27.0531 34.4922 26.4473 35.098 26.4473 35.8454C26.4473 36.5927 27.0531 37.1986 27.8005 37.1986Z" fill="#C4E9B1"/>
<path d="M36.411 37.2078C37.1601 37.2078 37.7674 36.6005 37.7674 35.8515C37.7674 35.1024 37.1601 34.4951 36.411 34.4951C35.6619 34.4951 35.0547 35.1024 35.0547 35.8515C35.0547 36.6005 35.6619 37.2078 36.411 37.2078Z" fill="#C4E9B1"/>
<path d="M45.0221 37.2044C45.7695 37.2044 46.3753 36.5986 46.3753 35.8512C46.3753 35.1039 45.7695 34.498 45.0221 34.498C44.2748 34.498 43.6689 35.1039 43.6689 35.8512C43.6689 36.5986 44.2748 37.2044 45.0221 37.2044Z" fill="#C4E9B1"/>
<path d="M53.6362 37.202C54.3818 37.202 54.9862 36.5976 54.9862 35.852C54.9862 35.1064 54.3818 34.502 53.6362 34.502C52.8906 34.502 52.2861 35.1064 52.2861 35.852C52.2861 36.5976 52.8906 37.202 53.6362 37.202Z" fill="#C4E9B1"/>
<path d="M62.2475 37.202C62.9931 37.202 63.5975 36.5976 63.5975 35.852C63.5975 35.1064 62.9931 34.502 62.2475 34.502C61.5019 34.502 60.8975 35.1064 60.8975 35.852C60.8975 36.5976 61.5019 37.202 62.2475 37.202Z" fill="#C4E9B1"/>
<path d="M70.8588 37.202C71.6044 37.202 72.2088 36.5976 72.2088 35.852C72.2088 35.1064 71.6044 34.502 70.8588 34.502C70.1132 34.502 69.5088 35.1064 69.5088 35.852C69.5088 36.5976 70.1132 37.202 70.8588 37.202Z" fill="#C4E9B1"/>
<path d="M79.4733 37.2044C80.2206 37.2044 80.8265 36.5986 80.8265 35.8512C80.8265 35.1039 80.2206 34.498 79.4733 34.498C78.726 34.498 78.1201 35.1039 78.1201 35.8512C78.1201 36.5986 78.726 37.2044 79.4733 37.2044Z" fill="#C4E9B1"/>
<path d="M88.0905 37.2044C88.8378 37.2044 89.4437 36.5986 89.4437 35.8512C89.4437 35.1039 88.8378 34.498 88.0905 34.498C87.3431 34.498 86.7373 35.1039 86.7373 35.8512C86.7373 36.5986 87.3431 37.2044 88.0905 37.2044Z" fill="#C4E9B1"/>
<path d="M96.702 37.2078C97.4511 37.2078 98.0584 36.6005 98.0584 35.8515C98.0584 35.1024 97.4511 34.4951 96.702 34.4951C95.953 34.4951 95.3457 35.1024 95.3457 35.8515C95.3457 36.6005 95.953 37.2078 96.702 37.2078Z" fill="#C4E9B1"/>
<path d="M105.316 37.1981C106.061 37.1981 106.666 36.5937 106.666 35.8481C106.666 35.1025 106.061 34.498 105.316 34.498C104.57 34.498 103.966 35.1025 103.966 35.8481C103.966 36.5937 104.57 37.1981 105.316 37.1981Z" fill="#C4E9B1"/>
<path d="M113.931 37.1981C114.677 37.1981 115.281 36.5937 115.281 35.8481C115.281 35.1025 114.677 34.498 113.931 34.498C113.185 34.498 112.581 35.1025 112.581 35.8481C112.581 36.5937 113.185 37.1981 113.931 37.1981Z" fill="#C4E9B1"/>
<path d="M1.95377 45.8255C2.70111 45.8255 3.30695 45.2197 3.30695 44.4723C3.30695 43.725 2.70111 43.1191 1.95377 43.1191C1.20643 43.1191 0.600586 43.725 0.600586 44.4723C0.600586 45.2197 1.20643 45.8255 1.95377 45.8255Z" fill="#C4E9B1"/>
<path d="M10.5619 45.8192C11.3075 45.8192 11.912 45.2148 11.912 44.4692C11.912 43.7236 11.3075 43.1191 10.5619 43.1191C9.81634 43.1191 9.21191 43.7236 9.21191 44.4692C9.21191 45.2148 9.81634 45.8192 10.5619 45.8192Z" fill="#C4E9B1"/>
<path d="M19.1862 45.8187C19.9335 45.8187 20.5394 45.2128 20.5394 44.4655C20.5394 43.7181 19.9335 43.1123 19.1862 43.1123C18.4388 43.1123 17.833 43.7181 17.833 44.4655C17.833 45.2128 18.4388 45.8187 19.1862 45.8187Z" fill="#C4E9B1"/>
<path d="M27.7965 45.8187C28.5439 45.8187 29.1497 45.2128 29.1497 44.4655C29.1497 43.7181 28.5439 43.1123 27.7965 43.1123C27.0492 43.1123 26.4434 43.7181 26.4434 44.4655C26.4434 45.2128 27.0492 45.8187 27.7965 45.8187Z" fill="#C4E9B1"/>
<path d="M36.4076 45.8221C37.1532 45.8221 37.7577 45.2177 37.7577 44.4721C37.7577 43.7265 37.1532 43.1221 36.4076 43.1221C35.662 43.1221 35.0576 43.7265 35.0576 44.4721C35.0576 45.2177 35.662 45.8221 36.4076 45.8221Z" fill="#C4E9B1"/>
<path d="M45.0192 45.8187C45.7665 45.8187 46.3724 45.2128 46.3724 44.4655C46.3724 43.7181 45.7665 43.1123 45.0192 43.1123C44.2719 43.1123 43.666 43.7181 43.666 44.4655C43.666 45.2128 44.2719 45.8187 45.0192 45.8187Z" fill="#C4E9B1"/>
<path d="M53.6364 45.8157C54.3837 45.8157 54.9896 45.2099 54.9896 44.4626C54.9896 43.7152 54.3837 43.1094 53.6364 43.1094C52.889 43.1094 52.2832 43.7152 52.2832 44.4626C52.2832 45.2099 52.889 45.8157 53.6364 45.8157Z" fill="#C4E9B1"/>
<path d="M62.2573 45.8192C63.0029 45.8192 63.6073 45.2148 63.6073 44.4692C63.6073 43.7236 63.0029 43.1191 62.2573 43.1191C61.5117 43.1191 60.9072 43.7236 60.9072 44.4692C60.9072 45.2148 61.5117 45.8192 62.2573 45.8192Z" fill="#C4E9B1"/>
<path d="M70.8649 45.8255C71.6122 45.8255 72.2181 45.2197 72.2181 44.4723C72.2181 43.725 71.6122 43.1191 70.8649 43.1191C70.1176 43.1191 69.5117 43.725 69.5117 44.4723C69.5117 45.2197 70.1176 45.8255 70.8649 45.8255Z" fill="#C4E9B1"/>
<path d="M79.4701 45.8192C80.2157 45.8192 80.8202 45.2148 80.8202 44.4692C80.8202 43.7236 80.2157 43.1191 79.4701 43.1191C78.7245 43.1191 78.1201 43.7236 78.1201 44.4692C78.1201 45.2148 78.7245 45.8192 79.4701 45.8192Z" fill="#C4E9B1"/>
<path d="M88.0844 45.8124C88.83 45.8124 89.4344 45.2079 89.4344 44.4623C89.4344 43.7167 88.83 43.1123 88.0844 43.1123C87.3388 43.1123 86.7344 43.7167 86.7344 44.4623C86.7344 45.2079 87.3388 45.8124 88.0844 45.8124Z" fill="#C4E9B1"/>
<path d="M96.7047 45.8187C97.4521 45.8187 98.0579 45.2128 98.0579 44.4655C98.0579 43.7181 97.4521 43.1123 96.7047 43.1123C95.9574 43.1123 95.3516 43.7181 95.3516 44.4655C95.3516 45.2128 95.9574 45.8187 96.7047 45.8187Z" fill="#C4E9B1"/>
<path d="M105.316 45.8192C106.061 45.8192 106.666 45.2148 106.666 44.4692C106.666 43.7236 106.061 43.1191 105.316 43.1191C104.57 43.1191 103.966 43.7236 103.966 44.4692C103.966 45.2148 104.57 45.8192 105.316 45.8192Z" fill="#C4E9B1"/>
<path d="M113.927 45.8221C114.673 45.8221 115.277 45.2177 115.277 44.4721C115.277 43.7265 114.673 43.1221 113.927 43.1221C113.182 43.1221 112.577 43.7265 112.577 44.4721C112.577 45.2177 113.182 45.8221 113.927 45.8221Z" fill="#C4E9B1"/>
<path d="M1.95377 54.4427C2.70111 54.4427 3.30695 53.8369 3.30695 53.0895C3.30695 52.3422 2.70111 51.7363 1.95377 51.7363C1.20643 51.7363 0.600586 52.3422 0.600586 53.0895C0.600586 53.8369 1.20643 54.4427 1.95377 54.4427Z" fill="#C4E9B1"/>
<path d="M10.5649 54.4462C11.3105 54.4462 11.9149 53.8417 11.9149 53.0961C11.9149 52.3505 11.3105 51.7461 10.5649 51.7461C9.81927 51.7461 9.21484 52.3505 9.21484 53.0961C9.21484 53.8417 9.81927 54.4462 10.5649 54.4462Z" fill="#C4E9B1"/>
<path d="M27.7973 54.4432C28.5429 54.4432 29.1473 53.8388 29.1473 53.0932C29.1473 52.3476 28.5429 51.7432 27.7973 51.7432C27.0517 51.7432 26.4473 52.3476 26.4473 53.0932C26.4473 53.8388 27.0517 54.4432 27.7973 54.4432Z" fill="#C4E9B1"/>
<path d="M36.4079 54.4456C37.1552 54.4456 37.7611 53.8398 37.7611 53.0924C37.7611 52.3451 37.1552 51.7393 36.4079 51.7393C35.6605 51.7393 35.0547 52.3451 35.0547 53.0924C35.0547 53.8398 35.6605 54.4456 36.4079 54.4456Z" fill="#C4E9B1"/>
<path d="M45.019 54.4432C45.7646 54.4432 46.369 53.8388 46.369 53.0932C46.369 52.3476 45.7646 51.7432 45.019 51.7432C44.2734 51.7432 43.6689 52.3476 43.6689 53.0932C43.6689 53.8388 44.2734 54.4432 45.019 54.4432Z" fill="#C4E9B1"/>
<path d="M53.6337 54.449C54.3828 54.449 54.99 53.8418 54.99 53.0927C54.99 52.3436 54.3828 51.7363 53.6337 51.7363C52.8846 51.7363 52.2773 52.3436 52.2773 53.0927C52.2773 53.8418 52.8846 54.449 53.6337 54.449Z" fill="#C4E9B1"/>
<path d="M62.2575 54.4456C63.0048 54.4456 63.6107 53.8398 63.6107 53.0924C63.6107 52.3451 63.0048 51.7393 62.2575 51.7393C61.5101 51.7393 60.9043 52.3451 60.9043 53.0924C60.9043 53.8398 61.5101 54.4456 62.2575 54.4456Z" fill="#C4E9B1"/>
<path d="M70.8649 54.4427C71.6122 54.4427 72.2181 53.8369 72.2181 53.0895C72.2181 52.3422 71.6122 51.7363 70.8649 51.7363C70.1176 51.7363 69.5117 52.3422 69.5117 53.0895C69.5117 53.8369 70.1176 54.4427 70.8649 54.4427Z" fill="#C4E9B1"/>
<path d="M79.4733 54.4456C80.2206 54.4456 80.8265 53.8398 80.8265 53.0924C80.8265 52.3451 80.2206 51.7393 79.4733 51.7393C78.726 51.7393 78.1201 52.3451 78.1201 53.0924C78.1201 53.8398 78.726 54.4456 79.4733 54.4456Z" fill="#C4E9B1"/>
<path d="M88.0846 54.4525C88.832 54.4525 89.4378 53.8466 89.4378 53.0993C89.4378 52.3519 88.832 51.7461 88.0846 51.7461C87.3373 51.7461 86.7314 52.3519 86.7314 53.0993C86.7314 53.8466 87.3373 54.4525 88.0846 54.4525Z" fill="#C4E9B1"/>
<path d="M96.7084 54.4462C97.454 54.4462 98.0585 53.8417 98.0585 53.0961C98.0585 52.3505 97.454 51.7461 96.7084 51.7461C95.9628 51.7461 95.3584 52.3505 95.3584 53.0961C95.3584 53.8417 95.9628 54.4462 96.7084 54.4462Z" fill="#C4E9B1"/>
<path d="M105.319 54.4456C106.066 54.4456 106.672 53.8398 106.672 53.0924C106.672 52.3451 106.066 51.7393 105.319 51.7393C104.572 51.7393 103.966 52.3451 103.966 53.0924C103.966 53.8398 104.572 54.4456 105.319 54.4456Z" fill="#C4E9B1"/>
<path d="M113.927 54.4456C114.675 54.4456 115.281 53.8398 115.281 53.0924C115.281 52.3451 114.675 51.7393 113.927 51.7393C113.18 51.7393 112.574 52.3451 112.574 53.0924C112.574 53.8398 113.18 54.4456 113.927 54.4456Z" fill="#C4E9B1"/>
<path d="M19.1862 54.4525C19.9335 54.4525 20.5394 53.8466 20.5394 53.0993C20.5394 52.3519 19.9335 51.7461 19.1862 51.7461C18.4388 51.7461 17.833 52.3519 17.833 53.0993C17.833 53.8466 18.4388 54.4525 19.1862 54.4525Z" fill="#C4E9B1"/>
<path d="M1.96061 63.0696C2.70795 63.0696 3.31379 62.4638 3.31379 61.7165C3.31379 60.9691 2.70795 60.3633 1.96061 60.3633C1.21326 60.3633 0.607422 60.9691 0.607422 61.7165C0.607422 62.4638 1.21326 63.0696 1.96061 63.0696Z" fill="#C4E9B1"/>
<path d="M10.568 63.0696C11.3154 63.0696 11.9212 62.4638 11.9212 61.7165C11.9212 60.9691 11.3154 60.3633 10.568 60.3633C9.82069 60.3633 9.21484 60.9691 9.21484 61.7165C9.21484 62.4638 9.82069 63.0696 10.568 63.0696Z" fill="#C4E9B1"/>
<path d="M19.183 63.0663C19.9286 63.0663 20.5331 62.4618 20.5331 61.7162C20.5331 60.9706 19.9286 60.3662 19.183 60.3662C18.4374 60.3662 17.833 60.9706 17.833 61.7162C17.833 62.4618 18.4374 63.0663 19.183 63.0663Z" fill="#C4E9B1"/>
<path d="M27.8005 63.0667C28.5478 63.0667 29.1536 62.4609 29.1536 61.7135C29.1536 60.9662 28.5478 60.3604 27.8005 60.3604C27.0531 60.3604 26.4473 60.9662 26.4473 61.7135C26.4473 62.4609 27.0531 63.0667 27.8005 63.0667Z" fill="#C4E9B1"/>
<path d="M36.4081 63.073C37.1572 63.073 37.7644 62.4658 37.7644 61.7167C37.7644 60.9676 37.1572 60.3604 36.4081 60.3604C35.659 60.3604 35.0518 60.9676 35.0518 61.7167C35.0518 62.4658 35.659 63.073 36.4081 63.073Z" fill="#C4E9B1"/>
<path d="M45.0229 63.0692C45.7685 63.0692 46.3729 62.4648 46.3729 61.7192C46.3729 60.9736 45.7685 60.3691 45.0229 60.3691C44.2773 60.3691 43.6729 60.9736 43.6729 61.7192C43.6729 62.4648 44.2773 63.0692 45.0229 63.0692Z" fill="#C4E9B1"/>
<path d="M53.6362 63.0663C54.3818 63.0663 54.9862 62.4618 54.9862 61.7162C54.9862 60.9706 54.3818 60.3662 53.6362 60.3662C52.8906 60.3662 52.2861 60.9706 52.2861 61.7162C52.2861 62.4618 52.8906 63.0663 53.6362 63.0663Z" fill="#C4E9B1"/>
<path d="M62.2506 63.0696C62.998 63.0696 63.6038 62.4638 63.6038 61.7165C63.6038 60.9691 62.998 60.3633 62.2506 60.3633C61.5033 60.3633 60.8975 60.9691 60.8975 61.7165C60.8975 62.4638 61.5033 63.0696 62.2506 63.0696Z" fill="#C4E9B1"/>
<path d="M70.862 63.0696C71.6093 63.0696 72.2152 62.4638 72.2152 61.7165C72.2152 60.9691 71.6093 60.3633 70.862 60.3633C70.1146 60.3633 69.5088 60.9691 69.5088 61.7165C69.5088 62.4638 70.1146 63.0696 70.862 63.0696Z" fill="#C4E9B1"/>
<path d="M79.4733 63.0696C80.2206 63.0696 80.8265 62.4638 80.8265 61.7165C80.8265 60.9691 80.2206 60.3633 79.4733 60.3633C78.726 60.3633 78.1201 60.9691 78.1201 61.7165C78.1201 62.4638 78.726 63.0696 79.4733 63.0696Z" fill="#C4E9B1"/>
<path d="M88.0905 63.0696C88.8378 63.0696 89.4437 62.4638 89.4437 61.7165C89.4437 60.9691 88.8378 60.3633 88.0905 60.3633C87.3431 60.3633 86.7373 60.9691 86.7373 61.7165C86.7373 62.4638 87.3431 63.0696 88.0905 63.0696Z" fill="#C4E9B1"/>
<path d="M96.6987 63.0663C97.4443 63.0663 98.0487 62.4618 98.0487 61.7162C98.0487 60.9706 97.4443 60.3662 96.6987 60.3662C95.9531 60.3662 95.3486 60.9706 95.3486 61.7162C95.3486 62.4618 95.9531 63.0663 96.6987 63.0663Z" fill="#C4E9B1"/>
<path d="M105.316 63.0696C106.063 63.0696 106.669 62.4638 106.669 61.7165C106.669 60.9691 106.063 60.3633 105.316 60.3633C104.569 60.3633 103.963 60.9691 103.963 61.7165C103.963 62.4638 104.569 63.0696 105.316 63.0696Z" fill="#C4E9B1"/>
<path d="M113.931 63.0701C114.68 63.0701 115.287 62.4628 115.287 61.7138C115.287 60.9647 114.68 60.3574 113.931 60.3574C113.181 60.3574 112.574 60.9647 112.574 61.7138C112.574 62.4628 113.181 63.0701 113.931 63.0701Z" fill="#C4E9B1"/>
<path d="M1.95062 71.6874C2.69622 71.6874 3.30065 71.0829 3.30065 70.3373C3.30065 69.5917 2.69622 68.9873 1.95062 68.9873C1.20501 68.9873 0.600586 69.5917 0.600586 70.3373C0.600586 71.0829 1.20501 71.6874 1.95062 71.6874Z" fill="#C4E9B1"/>
<path d="M10.5619 71.6844C11.3075 71.6844 11.912 71.08 11.912 70.3344C11.912 69.5888 11.3075 68.9844 10.5619 68.9844C9.81634 68.9844 9.21191 69.5888 9.21191 70.3344C9.21191 71.08 9.81634 71.6844 10.5619 71.6844Z" fill="#C4E9B1"/>
<path d="M19.1862 71.6868C19.9335 71.6868 20.5394 71.081 20.5394 70.3337C20.5394 69.5863 19.9335 68.9805 19.1862 68.9805C18.4388 68.9805 17.833 69.5863 17.833 70.3337C17.833 71.081 18.4388 71.6868 19.1862 71.6868Z" fill="#C4E9B1"/>
<path d="M27.7973 71.6844C28.5429 71.6844 29.1473 71.08 29.1473 70.3344C29.1473 69.5888 28.5429 68.9844 27.7973 68.9844C27.0517 68.9844 26.4473 69.5888 26.4473 70.3344C26.4473 71.08 27.0517 71.6844 27.7973 71.6844Z" fill="#C4E9B1"/>
<path d="M36.4076 71.6874C37.1532 71.6874 37.7577 71.0829 37.7577 70.3373C37.7577 69.5917 37.1532 68.9873 36.4076 68.9873C35.662 68.9873 35.0576 69.5917 35.0576 70.3373C35.0576 71.0829 35.662 71.6874 36.4076 71.6874Z" fill="#C4E9B1"/>
<path d="M45.0229 71.6844C45.7685 71.6844 46.3729 71.08 46.3729 70.3344C46.3729 69.5888 45.7685 68.9844 45.0229 68.9844C44.2773 68.9844 43.6729 69.5888 43.6729 70.3344C43.6729 71.08 44.2773 71.6844 45.0229 71.6844Z" fill="#C4E9B1"/>
<path d="M53.6364 71.6839C54.3837 71.6839 54.9896 71.0781 54.9896 70.3307C54.9896 69.5834 54.3837 68.9775 53.6364 68.9775C52.889 68.9775 52.2832 69.5834 52.2832 70.3307C52.2832 71.0781 52.889 71.6839 53.6364 71.6839Z" fill="#C4E9B1"/>
<path d="M62.2573 71.6844C63.0029 71.6844 63.6073 71.08 63.6073 70.3344C63.6073 69.5888 63.0029 68.9844 62.2573 68.9844C61.5117 68.9844 60.9072 69.5888 60.9072 70.3344C60.9072 71.08 61.5117 71.6844 62.2573 71.6844Z" fill="#C4E9B1"/>
<path d="M70.8649 71.6907C71.6122 71.6907 72.2181 71.0849 72.2181 70.3376C72.2181 69.5902 71.6122 68.9844 70.8649 68.9844C70.1176 68.9844 69.5117 69.5902 69.5117 70.3376C69.5117 71.0849 70.1176 71.6907 70.8649 71.6907Z" fill="#C4E9B1"/>
<path d="M79.4731 71.6874C80.2187 71.6874 80.8231 71.0829 80.8231 70.3373C80.8231 69.5917 80.2187 68.9873 79.4731 68.9873C78.7275 68.9873 78.123 69.5917 78.123 70.3373C78.123 71.0829 78.7275 71.6874 79.4731 71.6874Z" fill="#C4E9B1"/>
<path d="M88.0813 71.6811C88.8251 71.6811 89.4281 71.078 89.4281 70.3342C89.4281 69.5903 88.8251 68.9873 88.0813 68.9873C87.3374 68.9873 86.7344 69.5903 86.7344 70.3342C86.7344 71.078 87.3374 71.6811 88.0813 71.6811Z" fill="#C4E9B1"/>
<path d="M96.7084 71.6805C97.454 71.6805 98.0585 71.0761 98.0585 70.3305C98.0585 69.5849 97.454 68.9805 96.7084 68.9805C95.9628 68.9805 95.3584 69.5849 95.3584 70.3305C95.3584 71.0761 95.9628 71.6805 96.7084 71.6805Z" fill="#C4E9B1"/>
<path d="M105.32 71.6874C106.065 71.6874 106.67 71.0829 106.67 70.3373C106.67 69.5917 106.065 68.9873 105.32 68.9873C104.574 68.9873 103.97 69.5917 103.97 70.3373C103.97 71.0829 104.574 71.6874 105.32 71.6874Z" fill="#C4E9B1"/>
<path d="M113.927 71.6874C114.673 71.6874 115.277 71.0829 115.277 70.3373C115.277 69.5917 114.673 68.9873 113.927 68.9873C113.182 68.9873 112.577 69.5917 112.577 70.3373C112.577 71.0829 113.182 71.6874 113.927 71.6874Z" fill="#C4E9B1"/>
</svg>
