<svg width="150" height="94" viewBox="0 0 150 94" fill="none" xmlns="http://www.w3.org/2000/svg">
<g opacity="0.62">
<path d="M1.77235 3.5447C2.74903 3.5447 3.54079 2.75294 3.54079 1.77626C3.54079 0.799572 2.74903 0.0078125 1.77235 0.0078125C0.795665 0.0078125 0.00390625 0.799572 0.00390625 1.77626C0.00390625 2.75294 0.795665 3.5447 1.77235 3.5447Z" fill="#93C27B"/>
<path d="M13.0223 3.5447C13.999 3.5447 14.7908 2.75294 14.7908 1.77626C14.7908 0.799572 13.999 0.0078125 13.0223 0.0078125C12.0457 0.0078125 11.2539 0.799572 11.2539 1.77626C11.2539 2.75294 12.0457 3.5447 13.0223 3.5447Z" fill="#93C27B"/>
<path d="M24.2921 3.55783C25.2711 3.55783 26.0647 2.76422 26.0647 1.78526C26.0647 0.806299 25.2711 0.0126953 24.2921 0.0126953C23.3131 0.0126953 22.5195 0.806299 22.5195 1.78526C22.5195 2.76422 23.3131 3.55783 24.2921 3.55783Z" fill="#93C27B"/>
<path d="M35.5507 3.5447C36.5274 3.5447 37.3191 2.75294 37.3191 1.77626C37.3191 0.799572 36.5274 0.0078125 35.5507 0.0078125C34.574 0.0078125 33.7822 0.799572 33.7822 1.77626C33.7822 2.75294 34.574 3.5447 35.5507 3.5447Z" fill="#93C27B"/>
<path d="M46.7997 3.54958C47.7764 3.54958 48.5681 2.75782 48.5681 1.78114C48.5681 0.804454 47.7764 0.0126953 46.7997 0.0126953C45.823 0.0126953 45.0312 0.804454 45.0312 1.78114C45.0312 2.75782 45.823 3.54958 46.7997 3.54958Z" fill="#93C27B"/>
<path d="M58.0495 3.53645C59.0239 3.53645 59.8138 2.74654 59.8138 1.77213C59.8138 0.797725 59.0239 0.0078125 58.0495 0.0078125C57.0751 0.0078125 56.2852 0.797725 56.2852 1.77213C56.2852 2.74654 57.0751 3.53645 58.0495 3.53645Z" fill="#93C27B"/>
<path d="M69.3118 3.55337C70.2931 3.55337 71.0885 2.75792 71.0885 1.77669C71.0885 0.79545 70.2931 0 69.3118 0C68.3306 0 67.5352 0.79545 67.5352 1.77669C67.5352 2.75792 68.3306 3.55337 69.3118 3.55337Z" fill="#93C27B"/>
<path d="M80.5819 3.54958C81.5586 3.54958 82.3504 2.75782 82.3504 1.78114C82.3504 0.804454 81.5586 0.0126953 80.5819 0.0126953C79.6052 0.0126953 78.8135 0.804454 78.8135 1.78114C78.8135 2.75782 79.6052 3.54958 80.5819 3.54958Z" fill="#93C27B"/>
<path d="M91.8309 3.5447C92.8076 3.5447 93.5994 2.75294 93.5994 1.77626C93.5994 0.799572 92.8076 0.0078125 91.8309 0.0078125C90.8543 0.0078125 90.0625 0.799572 90.0625 1.77626C90.0625 2.75294 90.8543 3.5447 91.8309 3.5447Z" fill="#93C27B"/>
<path d="M103.081 3.5447C104.058 3.5447 104.849 2.75294 104.849 1.77626C104.849 0.799572 104.058 0.0078125 103.081 0.0078125C102.104 0.0078125 101.312 0.799572 101.312 1.77626C101.312 2.75294 102.104 3.5447 103.081 3.5447Z" fill="#93C27B"/>
<path d="M114.331 3.54958C115.308 3.54958 116.099 2.75782 116.099 1.78114C116.099 0.804454 115.308 0.0126953 114.331 0.0126953C113.354 0.0126953 112.562 0.804454 112.562 1.78114C112.562 2.75782 113.354 3.54958 114.331 3.54958Z" fill="#93C27B"/>
<path d="M125.6 3.54958C126.577 3.54958 127.369 2.75782 127.369 1.78114C127.369 0.804454 126.577 0.0126953 125.6 0.0126953C124.624 0.0126953 123.832 0.804454 123.832 1.78114C123.832 2.75782 124.624 3.54958 125.6 3.54958Z" fill="#93C27B"/>
<path d="M136.858 3.5447C137.835 3.5447 138.627 2.75294 138.627 1.77626C138.627 0.799572 137.835 0.0078125 136.858 0.0078125C135.882 0.0078125 135.09 0.799572 135.09 1.77626C135.09 2.75294 135.882 3.5447 136.858 3.5447Z" fill="#93C27B"/>
<path d="M148.108 3.5447C149.085 3.5447 149.877 2.75294 149.877 1.77626C149.877 0.799572 149.085 0.0078125 148.108 0.0078125C147.132 0.0078125 146.34 0.799572 146.34 1.77626C146.34 2.75294 147.132 3.5447 148.108 3.5447Z" fill="#93C27B"/>
<path d="M1.77702 14.8118C2.75142 14.8118 3.54134 14.0219 3.54134 13.0475C3.54134 12.0731 2.75142 11.2832 1.77702 11.2832C0.802608 11.2832 0.0126953 12.0731 0.0126953 13.0475C0.0126953 14.0219 0.802608 14.8118 1.77702 14.8118Z" fill="#93C27B"/>
<path d="M13.0299 14.8157C14.0044 14.8157 14.7943 14.0258 14.7943 13.0514C14.7943 12.077 14.0044 11.2871 13.0299 11.2871C12.0555 11.2871 11.2656 12.077 11.2656 13.0514C11.2656 14.0258 12.0555 14.8157 13.0299 14.8157Z" fill="#93C27B"/>
<path d="M24.2887 14.8157C25.2631 14.8157 26.0531 14.0258 26.0531 13.0514C26.0531 12.077 25.2631 11.2871 24.2887 11.2871C23.3143 11.2871 22.5244 12.077 22.5244 13.0514C22.5244 14.0258 23.3143 14.8157 24.2887 14.8157Z" fill="#93C27B"/>
<path d="M35.5505 14.8118C36.5249 14.8118 37.3148 14.0219 37.3148 13.0475C37.3148 12.0731 36.5249 11.2832 35.5505 11.2832C34.576 11.2832 33.7861 12.0731 33.7861 13.0475C33.7861 14.0219 34.576 14.8118 35.5505 14.8118Z" fill="#93C27B"/>
<path d="M46.7999 14.8235C47.7789 14.8235 48.5725 14.0298 48.5725 13.0509C48.5725 12.0719 47.7789 11.2783 46.7999 11.2783C45.8209 11.2783 45.0273 12.0719 45.0273 13.0509C45.0273 14.0298 45.8209 14.8235 46.7999 14.8235Z" fill="#93C27B"/>
<path d="M58.0583 14.8118C59.0327 14.8118 59.8226 14.0219 59.8226 13.0475C59.8226 12.0731 59.0327 11.2832 58.0583 11.2832C57.0839 11.2832 56.2939 12.0731 56.2939 13.0475C56.2939 14.0219 57.0839 14.8118 58.0583 14.8118Z" fill="#93C27B"/>
<path d="M69.32 14.8157C70.2944 14.8157 71.0843 14.0258 71.0843 13.0514C71.0843 12.077 70.2944 11.2871 69.32 11.2871C68.3456 11.2871 67.5557 12.077 67.5557 13.0514C67.5557 14.0258 68.3456 14.8157 69.32 14.8157Z" fill="#93C27B"/>
<path d="M80.5731 14.8152C81.5498 14.8152 82.3416 14.0234 82.3416 13.0468C82.3416 12.0701 81.5498 11.2783 80.5731 11.2783C79.5964 11.2783 78.8047 12.0701 78.8047 13.0468C78.8047 14.0234 79.5964 14.8152 80.5731 14.8152Z" fill="#93C27B"/>
<path d="M91.827 14.8152C92.8037 14.8152 93.5955 14.0234 93.5955 13.0468C93.5955 12.0701 92.8037 11.2783 91.827 11.2783C90.8503 11.2783 90.0586 12.0701 90.0586 13.0468C90.0586 14.0234 90.8503 14.8152 91.827 14.8152Z" fill="#93C27B"/>
<path d="M103.077 14.8152C104.054 14.8152 104.845 14.0234 104.845 13.0468C104.845 12.0701 104.054 11.2783 103.077 11.2783C102.1 11.2783 101.309 12.0701 101.309 13.0468C101.309 14.0234 102.1 14.8152 103.077 14.8152Z" fill="#93C27B"/>
<path d="M114.339 14.8109C115.313 14.8109 116.103 14.021 116.103 13.0465C116.103 12.0721 115.313 11.2822 114.339 11.2822C113.364 11.2822 112.574 12.0721 112.574 13.0465C112.574 14.021 113.364 14.8109 114.339 14.8109Z" fill="#93C27B"/>
<path d="M125.596 14.8157C126.571 14.8157 127.361 14.0258 127.361 13.0514C127.361 12.077 126.571 11.2871 125.596 11.2871C124.622 11.2871 123.832 12.077 123.832 13.0514C123.832 14.0258 124.622 14.8157 125.596 14.8157Z" fill="#93C27B"/>
<path d="M136.854 14.8152C137.831 14.8152 138.623 14.0234 138.623 13.0468C138.623 12.0701 137.831 11.2783 136.854 11.2783C135.878 11.2783 135.086 12.0701 135.086 13.0468C135.086 14.0234 135.878 14.8152 136.854 14.8152Z" fill="#93C27B"/>
<path d="M148.112 14.8113C149.089 14.8113 149.881 14.0195 149.881 13.0429C149.881 12.0662 149.089 11.2744 148.112 11.2744C147.135 11.2744 146.344 12.0662 146.344 13.0429C146.344 14.0195 147.135 14.8113 148.112 14.8113Z" fill="#93C27B"/>
<path d="M1.76844 26.0818C2.74513 26.0818 3.53689 25.29 3.53689 24.3134C3.53689 23.3367 2.74513 22.5449 1.76844 22.5449C0.791758 22.5449 0 23.3367 0 24.3134C0 25.29 0.791758 26.0818 1.76844 26.0818Z" fill="#93C27B"/>
<path d="M13.026 26.0775C14.0004 26.0775 14.7904 25.2876 14.7904 24.3131C14.7904 23.3387 14.0004 22.5488 13.026 22.5488C12.0516 22.5488 11.2617 23.3387 11.2617 24.3131C11.2617 25.2876 12.0516 26.0775 13.026 26.0775Z" fill="#93C27B"/>
<path d="M24.2968 26.0769C25.2734 26.0769 26.0652 25.2852 26.0652 24.3085C26.0652 23.3318 25.2734 22.54 24.2968 22.54C23.3201 22.54 22.5283 23.3318 22.5283 24.3085C22.5283 25.2852 23.3201 26.0769 24.2968 26.0769Z" fill="#93C27B"/>
<path d="M35.5465 26.0736C36.521 26.0736 37.3109 25.2836 37.3109 24.3092C37.3109 23.3348 36.521 22.5449 35.5465 22.5449C34.5721 22.5449 33.7822 23.3348 33.7822 24.3092C33.7822 25.2836 34.5721 26.0736 35.5465 26.0736Z" fill="#93C27B"/>
<path d="M46.7995 26.0814C47.7739 26.0814 48.5638 25.2915 48.5638 24.3171C48.5638 23.3426 47.7739 22.5527 46.7995 22.5527C45.8251 22.5527 45.0352 23.3426 45.0352 24.3171C45.0352 25.2915 45.8251 26.0814 46.7995 26.0814Z" fill="#93C27B"/>
<path d="M58.0536 26.0769C59.0303 26.0769 59.822 25.2852 59.822 24.3085C59.822 23.3318 59.0303 22.54 58.0536 22.54C57.0769 22.54 56.2852 23.3318 56.2852 24.3085C56.2852 25.2852 57.0769 26.0769 58.0536 26.0769Z" fill="#93C27B"/>
<path d="M69.3112 26.0697C70.2856 26.0697 71.0755 25.2797 71.0755 24.3053C71.0755 23.3309 70.2856 22.541 69.3112 22.541C68.3368 22.541 67.5469 23.3309 67.5469 24.3053C67.5469 25.2797 68.3368 26.0697 69.3112 26.0697Z" fill="#93C27B"/>
<path d="M80.5776 26.0731C81.5497 26.0731 82.3378 25.2851 82.3378 24.3129C82.3378 23.3408 81.5497 22.5527 80.5776 22.5527C79.6055 22.5527 78.8174 23.3408 78.8174 24.3129C78.8174 25.2851 79.6055 26.0731 80.5776 26.0731Z" fill="#93C27B"/>
<path d="M91.8309 26.0857C92.8076 26.0857 93.5994 25.294 93.5994 24.3173C93.5994 23.3406 92.8076 22.5488 91.8309 22.5488C90.8543 22.5488 90.0625 23.3406 90.0625 24.3173C90.0625 25.294 90.8543 26.0857 91.8309 26.0857Z" fill="#93C27B"/>
<path d="M103.081 26.0736C104.055 26.0736 104.845 25.2836 104.845 24.3092C104.845 23.3348 104.055 22.5449 103.081 22.5449C102.106 22.5449 101.316 23.3348 101.316 24.3092C101.316 25.2836 102.106 26.0736 103.081 26.0736Z" fill="#93C27B"/>
<path d="M114.335 26.0736C115.309 26.0736 116.099 25.2836 116.099 24.3092C116.099 23.3348 115.309 22.5449 114.335 22.5449C113.36 22.5449 112.57 23.3348 112.57 24.3092C112.57 25.2836 113.36 26.0736 114.335 26.0736Z" fill="#93C27B"/>
<path d="M125.604 26.0736C126.579 26.0736 127.368 25.2836 127.368 24.3092C127.368 23.3348 126.579 22.5449 125.604 22.5449C124.63 22.5449 123.84 23.3348 123.84 24.3092C123.84 25.2836 124.63 26.0736 125.604 26.0736Z" fill="#93C27B"/>
<path d="M136.854 26.0818C137.831 26.0818 138.623 25.29 138.623 24.3134C138.623 23.3367 137.831 22.5449 136.854 22.5449C135.878 22.5449 135.086 23.3367 135.086 24.3134C135.086 25.29 135.878 26.0818 136.854 26.0818Z" fill="#93C27B"/>
<path d="M148.108 26.0814C149.082 26.0814 149.872 25.2915 149.872 24.3171C149.872 23.3426 149.082 22.5527 148.108 22.5527C147.134 22.5527 146.344 23.3426 146.344 24.3171C146.344 25.2915 147.134 26.0814 148.108 26.0814Z" fill="#93C27B"/>
<path d="M1.77235 37.3474C2.74903 37.3474 3.54079 36.5557 3.54079 35.579C3.54079 34.6023 2.74903 33.8105 1.77235 33.8105C0.795665 33.8105 0.00390625 34.6023 0.00390625 35.579C0.00390625 36.5557 0.795665 37.3474 1.77235 37.3474Z" fill="#93C27B"/>
<path d="M13.0221 37.3558C13.9965 37.3558 14.7865 36.5659 14.7865 35.5915C14.7865 34.6171 13.9965 33.8271 13.0221 33.8271C12.0477 33.8271 11.2578 34.6171 11.2578 35.5915C11.2578 36.5659 12.0477 37.3558 13.0221 37.3558Z" fill="#93C27B"/>
<path d="M24.2921 37.3596C25.2711 37.3596 26.0647 36.566 26.0647 35.587C26.0647 34.6081 25.2711 33.8145 24.2921 33.8145C23.3131 33.8145 22.5195 34.6081 22.5195 35.587C22.5195 36.566 23.3131 37.3596 24.2921 37.3596Z" fill="#93C27B"/>
<path d="M35.5507 37.3474C36.5274 37.3474 37.3191 36.5557 37.3191 35.579C37.3191 34.6023 36.5274 33.8105 35.5507 33.8105C34.574 33.8105 33.7822 34.6023 33.7822 35.579C33.7822 36.5557 34.574 37.3474 35.5507 37.3474Z" fill="#93C27B"/>
<path d="M46.7997 37.3513C47.7764 37.3513 48.5681 36.5596 48.5681 35.5829C48.5681 34.6062 47.7764 33.8145 46.7997 33.8145C45.823 33.8145 45.0312 34.6062 45.0312 35.5829C45.0312 36.5596 45.823 37.3513 46.7997 37.3513Z" fill="#93C27B"/>
<path d="M58.0534 37.348C59.0278 37.348 59.8177 36.5581 59.8177 35.5837C59.8177 34.6092 59.0278 33.8193 58.0534 33.8193C57.079 33.8193 56.2891 34.6092 56.2891 35.5837C56.2891 36.5581 57.079 37.348 58.0534 37.348Z" fill="#93C27B"/>
<path d="M69.3116 37.3557C70.2906 37.3557 71.0842 36.5621 71.0842 35.5831C71.0842 34.6042 70.2906 33.8105 69.3116 33.8105C68.3327 33.8105 67.5391 34.6042 67.5391 35.5831C67.5391 36.5621 68.3327 37.3557 69.3116 37.3557Z" fill="#93C27B"/>
<path d="M80.5819 37.3562C81.5586 37.3562 82.3504 36.5645 82.3504 35.5878C82.3504 34.6111 81.5586 33.8193 80.5819 33.8193C79.6052 33.8193 78.8135 34.6111 78.8135 35.5878C78.8135 36.5645 79.6052 37.3562 80.5819 37.3562Z" fill="#93C27B"/>
<path d="M91.8309 37.3474C92.8076 37.3474 93.5994 36.5557 93.5994 35.579C93.5994 34.6023 92.8076 33.8105 91.8309 33.8105C90.8543 33.8105 90.0625 34.6023 90.0625 35.579C90.0625 36.5557 90.8543 37.3474 91.8309 37.3474Z" fill="#93C27B"/>
<path d="M103.081 37.3474C104.058 37.3474 104.849 36.5557 104.849 35.579C104.849 34.6023 104.058 33.8105 103.081 33.8105C102.104 33.8105 101.312 34.6023 101.312 35.579C101.312 36.5557 102.104 37.3474 103.081 37.3474Z" fill="#93C27B"/>
<path d="M114.331 37.3552C115.308 37.3552 116.099 36.5635 116.099 35.5868C116.099 34.6101 115.308 33.8184 114.331 33.8184C113.354 33.8184 112.562 34.6101 112.562 35.5868C112.562 36.5635 113.354 37.3552 114.331 37.3552Z" fill="#93C27B"/>
<path d="M125.601 37.3596C126.58 37.3596 127.373 36.566 127.373 35.587C127.373 34.6081 126.58 33.8145 125.601 33.8145C124.622 33.8145 123.828 34.6081 123.828 35.587C123.828 36.566 124.622 37.3596 125.601 37.3596Z" fill="#93C27B"/>
<path d="M136.858 37.3513C137.835 37.3513 138.627 36.5596 138.627 35.5829C138.627 34.6062 137.835 33.8145 136.858 33.8145C135.882 33.8145 135.09 34.6062 135.09 35.5829C135.09 36.5596 135.882 37.3513 136.858 37.3513Z" fill="#93C27B"/>
<path d="M148.108 37.3513C149.085 37.3513 149.877 36.5596 149.877 35.5829C149.877 34.6062 149.085 33.8145 148.108 33.8145C147.132 33.8145 146.34 34.6062 146.34 35.5829C146.34 36.5596 147.132 37.3513 148.108 37.3513Z" fill="#93C27B"/>
<path d="M1.77702 48.6175C2.75142 48.6175 3.54134 47.8276 3.54134 46.8532C3.54134 45.8788 2.75142 45.0889 1.77702 45.0889C0.802608 45.0889 0.0126953 45.8788 0.0126953 46.8532C0.0126953 47.8276 0.802608 48.6175 1.77702 48.6175Z" fill="#93C27B"/>
<path d="M13.0299 48.6175C14.0044 48.6175 14.7943 47.8276 14.7943 46.8532C14.7943 45.8788 14.0044 45.0889 13.0299 45.0889C12.0555 45.0889 11.2656 45.8788 11.2656 46.8532C11.2656 47.8276 12.0555 48.6175 13.0299 48.6175Z" fill="#93C27B"/>
<path d="M24.2887 48.6175C25.2631 48.6175 26.0531 47.8276 26.0531 46.8532C26.0531 45.8788 25.2631 45.0889 24.2887 45.0889C23.3143 45.0889 22.5244 45.8788 22.5244 46.8532C22.5244 47.8276 23.3143 48.6175 24.2887 48.6175Z" fill="#93C27B"/>
<path d="M35.5507 48.6131C36.5274 48.6131 37.3191 47.8213 37.3191 46.8446C37.3191 45.8679 36.5274 45.0762 35.5507 45.0762C34.574 45.0762 33.7822 45.8679 33.7822 46.8446C33.7822 47.8213 34.574 48.6131 35.5507 48.6131Z" fill="#93C27B"/>
<path d="M46.8038 48.6262C47.7828 48.6262 48.5764 47.8326 48.5764 46.8536C48.5764 45.8747 47.7828 45.0811 46.8038 45.0811C45.8248 45.0811 45.0312 45.8747 45.0312 46.8536C45.0312 47.8326 45.8248 48.6262 46.8038 48.6262Z" fill="#93C27B"/>
<path d="M58.0575 48.6218C59.0342 48.6218 59.8259 47.8301 59.8259 46.8534C59.8259 45.8767 59.0342 45.085 58.0575 45.085C57.0808 45.085 56.2891 45.8767 56.2891 46.8534C56.2891 47.8301 57.0808 48.6218 58.0575 48.6218Z" fill="#93C27B"/>
<path d="M69.3151 48.6175C70.2895 48.6175 71.0794 47.8276 71.0794 46.8532C71.0794 45.8788 70.2895 45.0889 69.3151 45.0889C68.3407 45.0889 67.5508 45.8788 67.5508 46.8532C67.5508 47.8276 68.3407 48.6175 69.3151 48.6175Z" fill="#93C27B"/>
<path d="M80.569 48.6175C81.5434 48.6175 82.3333 47.8276 82.3333 46.8532C82.3333 45.8788 81.5434 45.0889 80.569 45.0889C79.5946 45.0889 78.8047 45.8788 78.8047 46.8532C78.8047 47.8276 79.5946 48.6175 80.569 48.6175Z" fill="#93C27B"/>
<path d="M91.8229 48.6175C92.7973 48.6175 93.5872 47.8276 93.5872 46.8532C93.5872 45.8788 92.7973 45.0889 91.8229 45.0889C90.8485 45.0889 90.0586 45.8788 90.0586 46.8532C90.0586 47.8276 90.8485 48.6175 91.8229 48.6175Z" fill="#93C27B"/>
<path d="M103.081 48.6218C104.058 48.6218 104.849 47.8301 104.849 46.8534C104.849 45.8767 104.058 45.085 103.081 45.085C102.104 45.085 101.312 45.8767 101.312 46.8534C101.312 47.8301 102.104 48.6218 103.081 48.6218Z" fill="#93C27B"/>
<path d="M114.343 48.6218C115.319 48.6218 116.111 47.8301 116.111 46.8534C116.111 45.8767 115.319 45.085 114.343 45.085C113.366 45.085 112.574 45.8767 112.574 46.8534C112.574 47.8301 113.366 48.6218 114.343 48.6218Z" fill="#93C27B"/>
<path d="M125.597 48.6262C126.576 48.6262 127.369 47.8326 127.369 46.8536C127.369 45.8747 126.576 45.0811 125.597 45.0811C124.618 45.0811 123.824 45.8747 123.824 46.8536C123.824 47.8326 124.618 48.6262 125.597 48.6262Z" fill="#93C27B"/>
<path d="M136.854 48.6136C137.829 48.6136 138.618 47.8237 138.618 46.8493C138.618 45.8749 137.829 45.085 136.854 45.085C135.88 45.085 135.09 45.8749 135.09 46.8493C135.09 47.8237 135.88 48.6136 136.854 48.6136Z" fill="#93C27B"/>
<path d="M148.112 48.6136C149.086 48.6136 149.876 47.8237 149.876 46.8493C149.876 45.8749 149.086 45.085 148.112 45.085C147.138 45.085 146.348 45.8749 146.348 46.8493C146.348 47.8237 147.138 48.6136 148.112 48.6136Z" fill="#93C27B"/>
<path d="M1.77235 59.8884C2.74903 59.8884 3.54079 59.0967 3.54079 58.12C3.54079 57.1433 2.74903 56.3516 1.77235 56.3516C0.795665 56.3516 0.00390625 57.1433 0.00390625 58.12C0.00390625 59.0967 0.795665 59.8884 1.77235 59.8884Z" fill="#93C27B"/>
<path d="M13.0221 59.8802C13.9965 59.8802 14.7865 59.0903 14.7865 58.1159C14.7865 57.1415 13.9965 56.3516 13.0221 56.3516C12.0477 56.3516 11.2578 57.1415 11.2578 58.1159C11.2578 59.0903 12.0477 59.8802 13.0221 59.8802Z" fill="#93C27B"/>
<path d="M24.2929 59.8797C25.2695 59.8797 26.0613 59.0879 26.0613 58.1112C26.0613 57.1345 25.2695 56.3428 24.2929 56.3428C23.3162 56.3428 22.5244 57.1345 22.5244 58.1112C22.5244 59.0879 23.3162 59.8797 24.2929 59.8797Z" fill="#93C27B"/>
<path d="M35.5458 59.8797C36.5225 59.8797 37.3142 59.0879 37.3142 58.1112C37.3142 57.1345 36.5225 56.3428 35.5458 56.3428C34.5691 56.3428 33.7773 57.1345 33.7773 58.1112C33.7773 59.0879 34.5691 59.8797 35.5458 59.8797Z" fill="#93C27B"/>
<path d="M46.7995 59.8841C47.7739 59.8841 48.5638 59.0942 48.5638 58.1198C48.5638 57.1454 47.7739 56.3555 46.7995 56.3555C45.8251 56.3555 45.0352 57.1454 45.0352 58.1198C45.0352 59.0942 45.8251 59.8841 46.7995 59.8841Z" fill="#93C27B"/>
<path d="M58.0536 59.8797C59.0303 59.8797 59.822 59.0879 59.822 58.1112C59.822 57.1345 59.0303 56.3428 58.0536 56.3428C57.0769 56.3428 56.2852 57.1345 56.2852 58.1112C56.2852 59.0879 57.0769 59.8797 58.0536 59.8797Z" fill="#93C27B"/>
<path d="M69.3153 59.8758C70.292 59.8758 71.0838 59.084 71.0838 58.1073C71.0838 57.1306 70.292 56.3389 69.3153 56.3389C68.3386 56.3389 67.5469 57.1306 67.5469 58.1073C67.5469 59.084 68.3386 59.8758 69.3153 59.8758Z" fill="#93C27B"/>
<path d="M80.5817 59.8802C81.5561 59.8802 82.346 59.0903 82.346 58.1159C82.346 57.1415 81.5561 56.3516 80.5817 56.3516C79.6073 56.3516 78.8174 57.1415 78.8174 58.1159C78.8174 59.0903 79.6073 59.8802 80.5817 59.8802Z" fill="#93C27B"/>
<path d="M91.8309 59.8884C92.8076 59.8884 93.5994 59.0967 93.5994 58.12C93.5994 57.1433 92.8076 56.3516 91.8309 56.3516C90.8543 56.3516 90.0625 57.1433 90.0625 58.12C90.0625 59.0967 90.8543 59.8884 91.8309 59.8884Z" fill="#93C27B"/>
<path d="M103.077 59.8802C104.051 59.8802 104.841 59.0903 104.841 58.1159C104.841 57.1415 104.051 56.3516 103.077 56.3516C102.102 56.3516 101.312 57.1415 101.312 58.1159C101.312 59.0903 102.102 59.8802 103.077 59.8802Z" fill="#93C27B"/>
<path d="M114.335 59.8714C115.309 59.8714 116.099 59.0815 116.099 58.1071C116.099 57.1327 115.309 56.3428 114.335 56.3428C113.36 56.3428 112.57 57.1327 112.57 58.1071C112.57 59.0815 113.36 59.8714 114.335 59.8714Z" fill="#93C27B"/>
<path d="M125.6 59.8797C126.577 59.8797 127.369 59.0879 127.369 58.1112C127.369 57.1345 126.577 56.3428 125.6 56.3428C124.624 56.3428 123.832 57.1345 123.832 58.1112C123.832 59.0879 124.624 59.8797 125.6 59.8797Z" fill="#93C27B"/>
<path d="M136.854 59.8802C137.829 59.8802 138.618 59.0903 138.618 58.1159C138.618 57.1415 137.829 56.3516 136.854 56.3516C135.88 56.3516 135.09 57.1415 135.09 58.1159C135.09 59.0903 135.88 59.8802 136.854 59.8802Z" fill="#93C27B"/>
<path d="M148.108 59.8841C149.082 59.8841 149.872 59.0942 149.872 58.1198C149.872 57.1454 149.082 56.3555 148.108 56.3555C147.134 56.3555 146.344 57.1454 146.344 58.1198C146.344 59.0942 147.134 59.8841 148.108 59.8841Z" fill="#93C27B"/>
<path d="M1.77235 71.1502C2.74903 71.1502 3.54079 70.3584 3.54079 69.3817C3.54079 68.405 2.74903 67.6133 1.77235 67.6133C0.795665 67.6133 0.00390625 68.405 0.00390625 69.3817C0.00390625 70.3584 0.795665 71.1502 1.77235 71.1502Z" fill="#93C27B"/>
<path d="M13.026 71.1536C14.0004 71.1536 14.7904 70.3637 14.7904 69.3893C14.7904 68.4149 14.0004 67.625 13.026 67.625C12.0516 67.625 11.2617 68.4149 11.2617 69.3893C11.2617 70.3637 12.0516 71.1536 13.026 71.1536Z" fill="#93C27B"/>
<path d="M35.5465 71.1497C36.521 71.1497 37.3109 70.3598 37.3109 69.3854C37.3109 68.411 36.521 67.6211 35.5465 67.6211C34.5721 67.6211 33.7822 68.411 33.7822 69.3854C33.7822 70.3598 34.5721 71.1497 35.5465 71.1497Z" fill="#93C27B"/>
<path d="M46.7997 71.1541C47.7764 71.1541 48.5681 70.3623 48.5681 69.3856C48.5681 68.4089 47.7764 67.6172 46.7997 67.6172C45.823 67.6172 45.0312 68.4089 45.0312 69.3856C45.0312 70.3623 45.823 71.1541 46.7997 71.1541Z" fill="#93C27B"/>
<path d="M58.0534 71.1497C59.0278 71.1497 59.8177 70.3598 59.8177 69.3854C59.8177 68.411 59.0278 67.6211 58.0534 67.6211C57.079 67.6211 56.2891 68.411 56.2891 69.3854C56.2891 70.3598 57.079 71.1497 58.0534 71.1497Z" fill="#93C27B"/>
<path d="M69.3116 71.1584C70.2906 71.1584 71.0842 70.3648 71.0842 69.3858C71.0842 68.4069 70.2906 67.6133 69.3116 67.6133C68.3327 67.6133 67.5391 68.4069 67.5391 69.3858C67.5391 70.3648 68.3327 71.1584 69.3116 71.1584Z" fill="#93C27B"/>
<path d="M80.5819 71.1541C81.5586 71.1541 82.3504 70.3623 82.3504 69.3856C82.3504 68.4089 81.5586 67.6172 80.5819 67.6172C79.6052 67.6172 78.8135 68.4089 78.8135 69.3856C78.8135 70.3623 79.6052 71.1541 80.5819 71.1541Z" fill="#93C27B"/>
<path d="M91.8309 71.1502C92.8076 71.1502 93.5994 70.3584 93.5994 69.3817C93.5994 68.405 92.8076 67.6133 91.8309 67.6133C90.8543 67.6133 90.0625 68.405 90.0625 69.3817C90.0625 70.3584 90.8543 71.1502 91.8309 71.1502Z" fill="#93C27B"/>
<path d="M103.081 71.1541C104.058 71.1541 104.849 70.3623 104.849 69.3856C104.849 68.4089 104.058 67.6172 103.081 67.6172C102.104 67.6172 101.312 68.4089 101.312 69.3856C101.312 70.3623 102.104 71.1541 103.081 71.1541Z" fill="#93C27B"/>
<path d="M114.335 71.1619C115.312 71.1619 116.103 70.3701 116.103 69.3934C116.103 68.4168 115.312 67.625 114.335 67.625C113.358 67.625 112.566 68.4168 112.566 69.3934C112.566 70.3701 113.358 71.1619 114.335 71.1619Z" fill="#93C27B"/>
<path d="M125.604 71.1536C126.579 71.1536 127.368 70.3637 127.368 69.3893C127.368 68.4149 126.579 67.625 125.604 67.625C124.63 67.625 123.84 68.4149 123.84 69.3893C123.84 70.3637 124.63 71.1536 125.604 71.1536Z" fill="#93C27B"/>
<path d="M136.858 71.1541C137.835 71.1541 138.627 70.3623 138.627 69.3856C138.627 68.4089 137.835 67.6172 136.858 67.6172C135.882 67.6172 135.09 68.4089 135.09 69.3856C135.09 70.3623 135.882 71.1541 136.858 71.1541Z" fill="#93C27B"/>
<path d="M148.108 71.1541C149.085 71.1541 149.877 70.3623 149.877 69.3856C149.877 68.4089 149.085 67.6172 148.108 67.6172C147.132 67.6172 146.34 68.4089 146.34 69.3856C146.34 70.3623 147.132 71.1541 148.108 71.1541Z" fill="#93C27B"/>
<path d="M24.2929 71.1619C25.2695 71.1619 26.0613 70.3701 26.0613 69.3934C26.0613 68.4168 25.2695 67.625 24.2929 67.625C23.3162 67.625 22.5244 68.4168 22.5244 69.3934C22.5244 70.3701 23.3162 71.1619 24.2929 71.1619Z" fill="#93C27B"/>
<path d="M1.78114 82.4246C2.75782 82.4246 3.54958 81.6328 3.54958 80.6561C3.54958 79.6795 2.75782 78.8877 1.78114 78.8877C0.804454 78.8877 0.0126953 79.6795 0.0126953 80.6561C0.0126953 81.6328 0.804454 82.4246 1.78114 82.4246Z" fill="#93C27B"/>
<path d="M13.0302 82.4246C14.0068 82.4246 14.7986 81.6328 14.7986 80.6561C14.7986 79.6795 14.0068 78.8877 13.0302 78.8877C12.0535 78.8877 11.2617 79.6795 11.2617 80.6561C11.2617 81.6328 12.0535 82.4246 13.0302 82.4246Z" fill="#93C27B"/>
<path d="M24.2887 82.4202C25.2631 82.4202 26.0531 81.6303 26.0531 80.6559C26.0531 79.6815 25.2631 78.8916 24.2887 78.8916C23.3143 78.8916 22.5244 79.6815 22.5244 80.6559C22.5244 81.6303 23.3143 82.4202 24.2887 82.4202Z" fill="#93C27B"/>
<path d="M35.5507 82.4197C36.5274 82.4197 37.3191 81.6279 37.3191 80.6513C37.3191 79.6746 36.5274 78.8828 35.5507 78.8828C34.574 78.8828 33.7822 79.6746 33.7822 80.6513C33.7822 81.6279 34.574 82.4197 35.5507 82.4197Z" fill="#93C27B"/>
<path d="M46.7999 82.4279C47.7789 82.4279 48.5725 81.6343 48.5725 80.6554C48.5725 79.6764 47.7789 78.8828 46.7999 78.8828C45.8209 78.8828 45.0273 79.6764 45.0273 80.6554C45.0273 81.6343 45.8209 82.4279 46.7999 82.4279Z" fill="#93C27B"/>
<path d="M58.0583 82.4241C59.0327 82.4241 59.8226 81.6342 59.8226 80.6598C59.8226 79.6854 59.0327 78.8955 58.0583 78.8955C57.0839 78.8955 56.2939 79.6854 56.2939 80.6598C56.2939 81.6342 57.0839 82.4241 58.0583 82.4241Z" fill="#93C27B"/>
<path d="M69.3151 82.4202C70.2895 82.4202 71.0794 81.6303 71.0794 80.6559C71.0794 79.6815 70.2895 78.8916 69.3151 78.8916C68.3407 78.8916 67.5508 79.6815 67.5508 80.6559C67.5508 81.6303 68.3407 82.4202 69.3151 82.4202Z" fill="#93C27B"/>
<path d="M80.5731 82.4246C81.5498 82.4246 82.3416 81.6328 82.3416 80.6561C82.3416 79.6795 81.5498 78.8877 80.5731 78.8877C79.5964 78.8877 78.8047 79.6795 78.8047 80.6561C78.8047 81.6328 79.5964 82.4246 80.5731 82.4246Z" fill="#93C27B"/>
<path d="M91.827 82.4246C92.8037 82.4246 93.5955 81.6328 93.5955 80.6561C93.5955 79.6795 92.8037 78.8877 91.827 78.8877C90.8503 78.8877 90.0586 79.6795 90.0586 80.6561C90.0586 81.6328 90.8503 82.4246 91.827 82.4246Z" fill="#93C27B"/>
<path d="M103.081 82.4246C104.058 82.4246 104.849 81.6328 104.849 80.6561C104.849 79.6795 104.058 78.8877 103.081 78.8877C102.104 78.8877 101.312 79.6795 101.312 80.6561C101.312 81.6328 102.104 82.4246 103.081 82.4246Z" fill="#93C27B"/>
<path d="M114.343 82.4246C115.319 82.4246 116.111 81.6328 116.111 80.6561C116.111 79.6795 115.319 78.8877 114.343 78.8877C113.366 78.8877 112.574 79.6795 112.574 80.6561C112.574 81.6328 113.366 82.4246 114.343 82.4246Z" fill="#93C27B"/>
<path d="M125.592 82.4202C126.567 82.4202 127.357 81.6303 127.357 80.6559C127.357 79.6815 126.567 78.8916 125.592 78.8916C124.618 78.8916 123.828 79.6815 123.828 80.6559C123.828 81.6303 124.618 82.4202 125.592 82.4202Z" fill="#93C27B"/>
<path d="M136.854 82.4246C137.831 82.4246 138.623 81.6328 138.623 80.6561C138.623 79.6795 137.831 78.8877 136.854 78.8877C135.878 78.8877 135.086 79.6795 135.086 80.6561C135.086 81.6328 135.878 82.4246 136.854 82.4246Z" fill="#93C27B"/>
<path d="M148.112 82.424C149.091 82.424 149.885 81.6304 149.885 80.6515C149.885 79.6725 149.091 78.8789 148.112 78.8789C147.133 78.8789 146.34 79.6725 146.34 80.6515C146.34 81.6304 147.133 82.424 148.112 82.424Z" fill="#93C27B"/>
<path d="M1.76823 93.6868C2.74263 93.6868 3.53255 92.8969 3.53255 91.9225C3.53255 90.9481 2.74263 90.1582 1.76823 90.1582C0.793819 90.1582 0.00390625 90.9481 0.00390625 91.9225C0.00390625 92.8969 0.793819 93.6868 1.76823 93.6868Z" fill="#93C27B"/>
<path d="M13.0221 93.682C13.9965 93.682 14.7865 92.892 14.7865 91.9176C14.7865 90.9432 13.9965 90.1533 13.0221 90.1533C12.0477 90.1533 11.2578 90.9432 11.2578 91.9176C11.2578 92.892 12.0477 93.682 13.0221 93.682Z" fill="#93C27B"/>
<path d="M24.2929 93.6863C25.2695 93.6863 26.0613 92.8945 26.0613 91.9179C26.0613 90.9412 25.2695 90.1494 24.2929 90.1494C23.3162 90.1494 22.5244 90.9412 22.5244 91.9179C22.5244 92.8945 23.3162 93.6863 24.2929 93.6863Z" fill="#93C27B"/>
<path d="M35.5465 93.682C36.521 93.682 37.3109 92.892 37.3109 91.9176C37.3109 90.9432 36.521 90.1533 35.5465 90.1533C34.5721 90.1533 33.7822 90.9432 33.7822 91.9176C33.7822 92.892 34.5721 93.682 35.5465 93.682Z" fill="#93C27B"/>
<path d="M46.7995 93.6868C47.7739 93.6868 48.5638 92.8969 48.5638 91.9225C48.5638 90.9481 47.7739 90.1582 46.7995 90.1582C45.8251 90.1582 45.0352 90.9481 45.0352 91.9225C45.0352 92.8969 45.8251 93.6868 46.7995 93.6868Z" fill="#93C27B"/>
<path d="M58.0583 93.682C59.0327 93.682 59.8226 92.892 59.8226 91.9176C59.8226 90.9432 59.0327 90.1533 58.0583 90.1533C57.0839 90.1533 56.2939 90.9432 56.2939 91.9176C56.2939 92.892 57.0839 93.682 58.0583 93.682Z" fill="#93C27B"/>
<path d="M69.3153 93.6824C70.292 93.6824 71.0838 92.8906 71.0838 91.914C71.0838 90.9373 70.292 90.1455 69.3153 90.1455C68.3386 90.1455 67.5469 90.9373 67.5469 91.914C67.5469 92.8906 68.3386 93.6824 69.3153 93.6824Z" fill="#93C27B"/>
<path d="M80.5817 93.682C81.5561 93.682 82.346 92.892 82.346 91.9176C82.346 90.9432 81.5561 90.1533 80.5817 90.1533C79.6073 90.1533 78.8174 90.9432 78.8174 91.9176C78.8174 92.892 79.6073 93.682 80.5817 93.682Z" fill="#93C27B"/>
<path d="M91.8309 93.6902C92.8076 93.6902 93.5994 92.8984 93.5994 91.9218C93.5994 90.9451 92.8076 90.1533 91.8309 90.1533C90.8543 90.1533 90.0625 90.9451 90.0625 91.9218C90.0625 92.8984 90.8543 93.6902 91.8309 93.6902Z" fill="#93C27B"/>
<path d="M103.081 93.6868C104.055 93.6868 104.845 92.8969 104.845 91.9225C104.845 90.9481 104.055 90.1582 103.081 90.1582C102.106 90.1582 101.316 90.9481 101.316 91.9225C101.316 92.8969 102.106 93.6868 103.081 93.6868Z" fill="#93C27B"/>
<path d="M114.331 93.6776C115.303 93.6776 116.091 92.8896 116.091 91.9174C116.091 90.9453 115.303 90.1572 114.331 90.1572C113.358 90.1572 112.57 90.9453 112.57 91.9174C112.57 92.8896 113.358 93.6776 114.331 93.6776Z" fill="#93C27B"/>
<path d="M125.604 93.6781C126.579 93.6781 127.368 92.8881 127.368 91.9137C127.368 90.9393 126.579 90.1494 125.604 90.1494C124.63 90.1494 123.84 90.9393 123.84 91.9137C123.84 92.8881 124.63 93.6781 125.604 93.6781Z" fill="#93C27B"/>
<path d="M136.859 93.6868C137.833 93.6868 138.623 92.8969 138.623 91.9225C138.623 90.9481 137.833 90.1582 136.859 90.1582C135.885 90.1582 135.095 90.9481 135.095 91.9225C135.095 92.8969 135.885 93.6868 136.859 93.6868Z" fill="#93C27B"/>
<path d="M148.108 93.6868C149.082 93.6868 149.872 92.8969 149.872 91.9225C149.872 90.9481 149.082 90.1582 148.108 90.1582C147.134 90.1582 146.344 90.9481 146.344 91.9225C146.344 92.8969 147.134 93.6868 148.108 93.6868Z" fill="#93C27B"/>
</g>
</svg>
