<svg width="106" height="28" viewBox="0 0 106 28" fill="none" xmlns="http://www.w3.org/2000/svg">
<path d="M17.392 10.0592C16.5279 8.99404 15.4627 8.25336 14.1965 7.84069C12.9303 7.42802 11.4454 7.21992 9.74178 7.21992H5.19186V2.59593C5.18833 1.16041 4.02792 0 2.59593 0C1.16394 0 0 1.16041 0 2.59593V27.035H10.0381C11.5406 27.035 12.8774 26.8164 14.0413 26.379C15.2052 25.9416 16.1893 25.3209 16.9935 24.5167C17.7976 23.7125 18.3831 22.8484 18.7605 21.9208C19.1379 20.9932 19.3919 20.2172 19.5329 19.5894C19.6705 18.9616 19.741 18.3091 19.741 17.6354V16.9194C19.741 15.6179 19.5647 14.4116 19.2155 13.3112C18.8628 12.2072 18.2561 11.1244 17.392 10.0592ZM14.2141 18.4995C14.0625 20.256 13.484 21.4199 12.4753 21.9948C11.4665 22.5733 10.1086 22.859 8.39797 22.859H6.81078C5.9008 22.8167 5.18833 22.0689 5.18833 21.1589V13.2442C5.18833 12.3024 5.95018 11.5406 6.89191 11.5406H8.42266C9.35028 11.5406 10.0698 11.5794 10.5848 11.6535C11.0997 11.7275 11.6182 11.918 12.1437 12.2178C12.6693 12.5176 13.1454 13.0502 13.5722 13.8156C13.999 14.5809 14.2106 15.7025 14.2106 17.1804V18.496L14.2141 18.4995ZM24.0229 7.21992C22.5274 7.21992 21.3141 8.43324 21.3141 9.92872V24.3298C21.3141 25.8253 22.5274 27.0386 24.0229 27.0386C25.5184 27.0386 26.7317 25.8253 26.7317 24.3298V9.92519C26.7317 8.42971 25.5184 7.2164 24.0229 7.2164V7.21992ZM75.7087 7.59732C74.6435 7.3469 73.4725 7.21992 72.1922 7.21992H61.4769C58.2356 7.21992 55.3716 9.32559 54.4087 12.4224L51.7069 21.0954L48.1516 9.88287C47.6473 8.29568 46.1765 7.21992 44.5117 7.21992C42.8469 7.21992 41.3655 8.30626 40.8682 9.9005L37.38 21.0954L33.613 9.00815C33.2815 7.9465 32.2974 7.21992 31.1829 7.21992C29.4335 7.21992 28.206 8.94819 28.7809 10.6024L33.5848 24.3862C34.1386 25.9734 35.634 27.035 37.3165 27.0315C39.0412 27.0315 40.5649 25.9064 41.0799 24.2592L44.4341 13.4946L47.8836 24.291C48.4056 25.9275 49.9258 27.035 51.6434 27.035H51.8868C53.5728 27.035 55.0753 25.9628 55.6185 24.365L59.336 13.4911C59.7804 12.1931 61.0008 11.3184 62.3763 11.3184H70.2382C71.3139 11.3184 72.1887 11.3995 72.8518 11.5618C73.5148 11.724 74.0404 12.0767 74.4319 12.6128L74.4425 12.6305C75.1514 13.6251 74.4425 15.0007 73.2221 15.0007H68.0973C66.8698 15.0007 65.8364 15.0818 64.997 15.244C64.1575 15.4063 63.3745 15.6955 62.6479 16.1082C61.9213 16.5208 61.357 17.0993 60.9549 17.8364C60.5528 18.5771 60.2918 19.5083 60.1649 20.6369V21.1625C60.1649 23.0177 60.7151 24.4462 61.8191 25.4479C62.8737 26.5024 64.3762 27.028 66.3302 27.028H74.901C77.9131 27.028 80.3574 24.5837 80.3574 21.5716V14.6197C80.3574 12.313 79.8495 10.6271 78.8337 9.5619C77.8179 8.49673 76.7774 7.83716 75.7122 7.58674L75.7087 7.59732ZM75.0138 21.5469C75.0138 22.3969 74.3225 23.0882 73.4725 23.0882H68.4711C67.868 23.0882 67.3848 23.0459 67.025 22.9577C66.6617 22.8696 66.3478 22.672 66.0833 22.3546C65.8188 22.0407 65.6883 21.5963 65.6883 21.0214C65.6883 20.1713 65.9951 19.6105 66.6088 19.3495C67.2225 19.085 67.9668 18.9545 68.845 18.9545H73.469C74.319 18.9545 75.0103 19.6458 75.0103 20.4958V21.5469H75.0138ZM90.667 12.1472C92.0285 12.1472 93.1289 11.0433 93.1289 9.68535C93.1289 8.32743 92.0249 7.22345 90.667 7.22345H87.5279V2.61356C87.5279 1.17099 86.3569 0 84.9144 0C83.4718 0 82.3008 1.17099 82.3008 2.61356V20.8697C82.3008 22.7743 82.8157 24.2804 83.8421 25.3808C84.8685 26.4848 86.3746 27.035 88.3533 27.035H91.1185C92.2295 27.035 93.1289 26.1356 93.1289 25.0246C93.1289 23.9136 92.2859 23.0706 91.2137 23.0177C90.6106 22.9895 90.0216 22.9472 89.7076 22.8978C89.0304 22.7461 88.4979 22.3828 88.1099 21.8079C87.7219 21.233 87.5279 20.3548 87.5279 19.1767V12.1472H90.667ZM103.795 23.0177C103.192 22.9895 102.603 22.9472 102.289 22.8978C101.612 22.7461 101.079 22.3828 100.691 21.8079C100.303 21.233 100.109 20.3548 100.109 19.1767V12.1472H103.248C104.61 12.1472 105.71 11.0433 105.71 9.68535C105.71 8.32743 104.606 7.22345 103.248 7.22345H100.109V2.61356C100.109 1.17099 98.938 0 97.4954 0C96.0529 0 94.8819 1.17099 94.8819 2.61356V20.8697C94.8819 22.7743 95.3968 24.2804 96.4232 25.3808C97.4496 26.4848 98.9557 27.035 100.934 27.035H103.7C104.811 27.035 105.71 26.1356 105.71 25.0246C105.71 23.9136 104.867 23.0706 103.795 23.0177ZM24.0229 0C22.4639 0 21.2013 1.26269 21.2013 2.82166C21.2013 4.38063 22.4639 5.64332 24.0229 5.64332C25.5819 5.64332 26.8446 4.38063 26.8446 2.82166C26.8446 1.26269 25.5819 0 24.0229 0Z" fill="url(#paint0_linear_9_10666)"/>
<defs>
<linearGradient id="paint0_linear_9_10666" x1="0" y1="13.5158" x2="105.706" y2="13.5158" gradientUnits="userSpaceOnUse">
<stop stop-color="#72BF44"/>
<stop offset="1" stop-color="#006690"/>
</linearGradient>
</defs>
</svg>
