<svg width="121" height="106" viewBox="0 0 121 106" fill="none" xmlns="http://www.w3.org/2000/svg">
<g opacity="0.73">
<path fill-rule="evenodd" clip-rule="evenodd" d="M51.6545 69.2257C76.4095 68.4485 124.844 53.986 120.543 2.3534C98.2139 -0.542002 53.1755 8.7789 51.6545 69.2257ZM57.4272 62.3724C56.7644 51.6215 63.5893 28.9246 96.1924 24.1445C95.4091 36.7259 86.5594 61.9854 57.4272 62.3724Z" fill="white"/>
</g>
<g opacity="0.5">
<path fill-rule="evenodd" clip-rule="evenodd" d="M51.946 71.4952C52.6412 83.7773 60.4276 107.646 86.0114 104.865C87.1701 93.7421 81.9792 71.4952 51.946 71.4952ZM55.4256 74.2732C60.7556 73.8097 72.1107 76.915 74.8916 93.0439C68.6347 92.8122 55.9818 88.7336 55.4256 74.2732Z" fill="white"/>
</g>
<g opacity="0.21">
<path fill-rule="evenodd" clip-rule="evenodd" d="M49.7123 69.151C48.7182 51.5877 37.5837 17.4551 0.998931 21.4318C-0.657988 37.3382 6.765 69.1511 49.7123 69.151ZM44.7376 65.1771C37.1158 65.8398 20.878 61.3993 16.9014 38.335C25.8487 38.6663 43.9423 44.4987 44.7376 65.1771Z" fill="white"/>
</g>
</svg>
