<svg width="146" height="166" viewBox="0 0 146 166" fill="none" xmlns="http://www.w3.org/2000/svg">
<g opacity="0.36">
<g opacity="0.73">
<path fill-rule="evenodd" clip-rule="evenodd" d="M93.5542 96.0722C94.1321 63.5679 78.2959 -0.863619 10.3273 1.44467C5.091 30.5316 14.4055 90.1789 93.5542 96.0722ZM84.9448 88.0621C70.8074 88.2376 41.4917 77.8258 37.3281 34.7744C53.7719 36.6129 86.3166 49.8444 84.9448 88.0621Z" fill="#D7D7D7"/>
</g>
<g opacity="0.5">
<path fill-rule="evenodd" clip-rule="evenodd" d="M96.5404 95.839C112.687 95.7199 144.482 87.0515 142.487 53.3313C127.978 51.0947 98.4777 56.465 96.5404 95.839ZM100.401 91.4607C100.137 84.4431 104.941 69.7567 126.266 67.1514C125.558 75.3393 119.395 91.6644 100.401 91.4607Z" fill="#D7D7D7"/>
</g>
<g opacity="0.21">
<path fill-rule="evenodd" clip-rule="evenodd" d="M93.3229 98.613C70.233 98.7834 24.7664 111.179 27.6198 159.399C48.3665 162.597 90.5525 154.918 93.3229 98.613ZM87.7907 104.874C88.168 114.909 81.2989 135.91 50.8047 139.636C51.8163 127.927 60.6298 104.582 87.7907 104.874Z" fill="#D7D7D7"/>
</g>
</g>
</svg>
