<svg width="95" height="108" viewBox="0 0 95 108" fill="none" xmlns="http://www.w3.org/2000/svg">
<g opacity="0.36">
<g opacity="0.73">
<path fill-rule="evenodd" clip-rule="evenodd" d="M61.0944 62.7507C61.4706 41.593 51.1625 -0.346646 6.92049 1.15586C3.51208 20.0891 9.57508 58.9146 61.0944 62.7507ZM55.4907 57.5365C46.2884 57.6508 27.2063 50.8736 24.4961 22.8506C35.1997 24.0473 56.3836 32.6599 55.4907 57.5365Z" fill="white"/>
</g>
<g opacity="0.5">
<path fill-rule="evenodd" clip-rule="evenodd" d="M63.0384 62.5994C73.5487 62.5218 94.2446 56.8794 92.9458 34.9303C83.5021 33.4745 64.2995 36.9701 63.0384 62.5994ZM65.5511 59.7492C65.3793 55.1813 68.5061 45.6216 82.3867 43.9258C81.9262 49.2555 77.9144 59.8818 65.5511 59.7492Z" fill="white"/>
</g>
<g opacity="0.21">
<path fill-rule="evenodd" clip-rule="evenodd" d="M60.9443 64.4044C45.9146 64.5153 16.3196 72.5839 18.1769 103.971C31.6813 106.053 59.141 101.054 60.9443 64.4044ZM57.3435 68.48C57.589 75.0121 53.1178 88.6824 33.2686 91.1074C33.927 83.486 39.6639 68.2905 57.3435 68.48Z" fill="white"/>
</g>
</g>
</svg>
